<?xml version="1.0" encoding="UTF-8"?>
<svg width="367px" height="53px" viewBox="0 0 367 53" version="1.1" xmlns="http://www.w3.org/2000/svg" xmlns:xlink="http://www.w3.org/1999/xlink">
    <!-- Generator: Sketch 60.1 (88133) - https://sketch.com -->
    <title>Artboard Copy 9</title>
    <desc>Created with Sketch.</desc>
    <g id="Artboard-Copy-9" stroke="none" stroke-width="1" fill="none" fill-rule="evenodd">
        <g id="Group-3" transform="translate(56.729735, 0.000000)" fill="#98A1E3">
            <rect id="Rectangle" x="0" y="0.137407407" width="40.5" height="14.2314815"></rect>
            <rect id="Rectangle-Copy" x="0" y="38.2777778" width="40.5" height="14.2314815"></rect>
            <rect id="Rectangle-Copy-2" x="0" y="19.1388889" width="40.5" height="14.2314815"></rect>
            <rect id="Rectangle-Copy-3" x="0" y="0" width="16.5" height="52.5092593"></rect>
        </g>
        <g id="Group-2">
            <g id="Group">
                <rect id="Rectangle" fill="#737CC2" x="0.6" y="0" width="16.5" height="53"></rect>
                <path d="M16.7823767,0 C49.4871363,0 54.6,11.8644541 54.6,26.5 C54.6,41.1355459 48.0779303,53 16.7823767,53 L16.7823767,38.885 L16.9717502,38.8845558 C35.952394,38.7738386 37.9221903,33.2037056 37.9221903,26.3486092 C37.9221903,19.4732281 35.0522846,13.8904262 16.7839629,13.8118232 L16.7823767,0 L16.7823767,0 Z" id="Combined-Shape" fill="#98A1E3"></path>
            </g>
        </g>
        <g id="Group-2-Copy" transform="translate(168.000000, 0.000000)">
            <g id="Group">
                <rect id="Rectangle" fill="#8782B9" x="0.6" y="0" width="16.5" height="53"></rect>
                <path d="M16.7823767,0 C49.4871363,0 54.6,11.8644541 54.6,26.5 C54.6,41.1355459 48.0779303,53 16.7823767,53 L16.7823767,38.885 L16.9717502,38.8845558 C35.952394,38.7738386 37.9221903,33.2037056 37.9221903,26.3486092 C37.9221903,19.4732281 35.0522846,13.8904262 16.7839629,13.8118232 L16.7823767,0 L16.7823767,0 Z" id="Combined-Shape" fill="#B3B0D3"></path>
            </g>
        </g>
        <path d="M246.634297,0.001 L247.082844,0.00244725422 C268.846187,0.163759181 272.272083,8.27929396 272.272083,18.2669859 C272.272083,25.005618 270.282745,30.8920226 262.585622,34.0582254 L272.5,53.3365238 L253.944297,53.3365238 L246.614735,36.533 L240.895735,36.533 L240.896694,53.3365238 L224.729735,53.3365238 L224.729735,0 L246.634297,0.001 Z M248.876294,14.0478801 L240.903044,14.0478801 L240.903044,22.4860918 L248.936453,22.4860918 L249.200796,22.4841576 C254.849154,22.4159791 256.039137,20.5539829 256.039137,18.2669859 C256.039137,15.9368381 255.070736,14.0478801 248.876294,14.0478801 Z" id="Combined-Shape" fill="#B3B0D3"></path>
        <rect id="Rectangle" fill="#B3B0D3" x="274.229735" y="0" width="16.1799175" height="53.3391979"></rect>
        <path d="M292.139388,53.3391979 L292.139388,-2.27373675e-13 L308.319305,-2.27373675e-13 L308.319305,39.2382209 L328.516569,39.2382209 L328.516569,53.3391979 L292.139388,53.3391979 Z" id="Combined-Shape" fill="#B3B0D3"></path>
        <path d="M330.246304,53.3391979 L330.246304,-2.27373675e-13 L346.426221,-2.27373675e-13 L346.426221,39.2382209 L366.623485,39.2382209 L366.623485,53.3391979 L330.246304,53.3391979 Z" id="Combined-Shape-Copy-2" fill="#B3B0D3"></path>
        <g id="Group-4" transform="translate(97.729735, -6.000000)" fill="#98A1E3">
            <polygon id="Rectangle-Copy-4" transform="translate(18.157649, 32.702266) rotate(-17.000000) translate(-18.157649, -32.702266) " points="9 1.99978586 26.5521061 7.36600322 27.3152979 63.4045312 12.2435266 58.7966283"></polygon>
            <polygon id="Rectangle-Copy-5" transform="translate(42.460401, 32.702266) scale(-1, 1) rotate(-17.000000) translate(-42.460401, -32.702266) " points="33.3027524 1.99978586 50.8548585 7.36600322 51.6180502 63.4045312 36.546279 58.7966283"></polygon>
        </g>
        <rect id="background" fill="#332E67" x="367" y="0" width="367" height="53"></rect>
        <animate xlink:href="#background" attributeName="x" from="0" to="367" dur="1s" begin="0s"/>
    </g>
</svg>