<svg xmlns="http://www.w3.org/2000/svg" xmlns:xlink="http://www.w3.org/1999/xlink" width="1024" height="894" xmlns:v="https://vecta.io/nano">
    <defs>
        <filter x="-2.9%" y="-16.3%" width="111.5%" height="165.3%" id="B">
            <feMorphology radius="17.5" in="SourceAlpha"/>
            <feOffset dx="20" dy="20"/>
            <feGaussianBlur stdDeviation="25"/>
            <feColorMatrix values="0 0 0 0 0 0 0 0 0 0 0 0 0 0 0 0 0 0 0.5 0"/>
        </filter>
        <rect id="A" x="103.432" y="679.477" width="606.515" height="107.261" rx="20"/>
    </defs>
    <g fill-rule="evenodd">
        <rect fill="#332e67" width="1024" height="894" rx="30"/>
        <path d="M123.432 264.807H502.25V622.67H123.432c-11.046 0-20-8.954-20-20V284.807c0-11.046 8.954-20 20-20z" fill="#bbbadf"/>
        <g fill="#b4b3f8">
            <path d="M120.56 174h73.27v34h-73.27c-9.39 0-17-7.61-17-17s7.61-17 17-17z" opacity=".86"/>
            <path d="M193.426 174h73.27c9.39 0 17 7.61 17 17s-7.61 17-17 17h-73.27v-34z" opacity=".563"/>
        </g>
        <path d="M502.25 264.807h398.32c11.046 0 20 8.954 20 20V602.67c0 11.046-8.954 20-20 20H502.25V264.807z" fill-opacity=".713" id="inputBackground" fill="#102438"/>
        <use fill="#000" filter="url(#B)" xlink:href="#A"/>
        <use fill="#4847a4" xlink:href="#A"/>
        <rect id="submitbutton" fill="#5bbc62" x="749.438" y="679.477" width="149.191" height="107.261" rx="20"/>
        <rect fill="#cd5252" x="103.432" y="61" width="90.197" height="39.004" rx="19.502"/>
        <g opacity=".268" fill="#d8d8d8">
            <rect x="888.568" y="66.502" width="31.089" height="7.473" rx="3.737"/>
            <rect x="888.568" y="76.765" width="31.089" height="7.473" rx="3.737"/>
            <rect x="888.568" y="87.029" width="31.089" height="7.473" rx="3.737"/>
        </g>
        <rect id="word1" fill="#de986d" x="568.196" y="315" width="73" height="11.512" rx="5"/>
        <g fill="#e9e2e2">
            <rect id="word3" x="568.196" y="350.496" width="0" height="11.512" rx="5"/>
            <rect id="word7" x="627.196" y="385.992" width="0" height="11.512" rx="5"/>
            <rect id="word8" x="568.196" y="421.488" width="73" height="11.512" rx="5"/>
            <rect id="word5" x="792.696" y="350.496" width="59" height="11.512" rx="5"/>
        </g>
        <rect id="word9" fill="#de986d" x="662.696" y="421.488" width="0" height="11.512" rx="5"/>
        <rect id="word4" fill="#648ecc" x="700.196" y="350.496" width="73" height="11.512" rx="5"/>
        <rect id="word2" fill="#e9e2e2" x="661.196" y="315" width="39" height="11.512" rx="5"/>
        <rect id="word6" fill="#648ecc" x="568.196" y="385.992" width="39" height="11.512" rx="5"/>
        <g id="question" fill="#5d5d5d">
            <rect x="148.862" y="315" width="112.5" height="11.512" rx="5"/>
            <rect x="207.862" y="350.496" width="183" height="11.512" rx="5"/>
            <rect x="373.362" y="315" width="59" height="11.512" rx="5"/>
            <rect x="280.862" y="315" width="73" height="11.512" rx="5"/>
            <rect x="148.862" y="350.496" width="39" height="11.512" rx="5"/>
            <rect x="148.696" y="421.488" width="73" height="11.512" rx="5"/>
            <rect x="148.696" y="456.984" width="112.5" height="11.512" rx="5"/>
            <rect x="207.696" y="492.48" width="183" height="11.512" rx="5"/>
            <rect x="280.696" y="456.984" width="73" height="11.512" rx="5"/>
            <rect x="241.696" y="421.488" width="39" height="11.512" rx="5"/>
            <rect x="148.696" y="492.48" width="39" height="11.512" rx="5"/>
        </g>
    </g>
    <animate xlink:href="#word1" attributeName="width" values="0;73;73;73;73;73;73;73;73;73;0;0;0;0;0" dur="5s" begin="0s" repeatCount="indefinite"/>

    <animate xlink:href="#word2" attributeName="width" values="0;0;39;39;39;39;39;39;39;39;0;0;0;0;0" dur="5s" begin="0s" repeatCount="indefinite"/>
    <animate xlink:href="#word3" attributeName="width" values="0;0;0;112;112;112;112;112;112;112;0;0;0;0;0" dur="5s" begin="0s" repeatCount="indefinite"/>
    <animate xlink:href="#word4" attributeName="width" values="0;0;0;0;73;73;73;73;73;73;0;0;0;0;0" dur="5s" begin="0s" repeatCount="indefinite"/>
    <animate xlink:href="#word5" attributeName="width" values="0;0;0;0;0;73;73;73;73;73;0;0;0;0;0" dur="5s" begin="0s" repeatCount="indefinite"/>
    <animate xlink:href="#word6" attributeName="width" values="0;0;0;0;0;0;39;39;39;39;0;0;0;0;0" dur="5s" begin="0s" repeatCount="indefinite"/>
    <animate xlink:href="#word7" attributeName="width" values="0;0;0;0;0;0;0;183;183;183;0;0;0;0;0" dur="5s" begin="0s" repeatCount="indefinite"/>
    <animate xlink:href="#word8" attributeName="width" values="0;0;0;0;0;0;0;0;73;73;0;0;0;0;0" dur="5s" begin="0s" repeatCount="indefinite"/>
    <animate xlink:href="#word9" attributeName="width" values="0;0;0;0;0;0;0;0;0;130;0;0;0;0;0" dur="5s" begin="0s" repeatCount="indefinite"/>
    <!-- <animate xlink:href="#submitbutton" attributeName="fill" values="#5bbc62;#5bbc62;#5bbc62;#5bbc62;#5bbc62;#5bbc62;#5bbc62;#5bbc62;#1d7b23;#1d7b23;#5bbc62;#5bbc62;#5bbc62" dur="5s" begin="0s" repeatCount="indefinite"/> -->
    <animate xlink:href="#question" attributeName="fill" values="#5d5d5d;#5d5d5d;#5d5d5d;#5d5d5d;#5d5d5d;#5d5d5d;#5d5d5d;#5d5d5d;#5d5d5d;#bbbadf;#bbbadf;#5d5d5d;#5d5d5d" dur="5s" begin="0s" repeatCount="indefinite"/>
    <!-- <animate xlink:href="#inputBackground" attributeName="fill" values="#102438;#102438;#102438;#102438;#102438;#102438;#102438;#102438;#102438;#5bbc62;#5bbc62;#102438;#102438" dur="5s" begin="0s" repeatCount="indefinite"/> -->
</svg>
