<?xml version="1.0" encoding="UTF-8"?>
<svg width="413px" height="87px" viewBox="0 0 413 87" version="1.1" xmlns="http://www.w3.org/2000/svg" xmlns:xlink="http://www.w3.org/1999/xlink">
    <!-- Generator: Sketch 60.1 (88133) - https://sketch.com -->
    <title>Rectangle Logo</title>
    <desc>Created with Sketch.</desc>
    <g id="Rectangle-Logo" stroke="none" stroke-width="1" fill="none" fill-rule="evenodd">
        <rect fill="#332E67" x="0" y="0" width="413" height="87"></rect>
        <g id="Group-3" transform="translate(79.917993, 17.000000)" fill="#98A1E3">
            <rect id="Rectangle" x="0" y="0.137407407" width="40.5" height="14.2314815"></rect>
            <rect id="Rectangle-Copy" x="0" y="38.2777778" width="40.5" height="14.2314815"></rect>
            <rect id="Rectangle-Copy-2" x="0" y="19.1388889" width="40.5" height="14.2314815"></rect>
            <rect id="Rectangle-Copy-3" x="0" y="0" width="16.5" height="52.5092593"></rect>
        </g>
        <g id="Group-2" transform="translate(23.188258, 17.000000)">
            <g id="Group">
                <rect id="Rectangle" fill="#737CC2" x="0.6" y="0" width="16.5" height="53"></rect>
                <path d="M16.7823767,0 C49.4871363,0 54.6,11.8644541 54.6,26.5 C54.6,41.1355459 48.0779303,53 16.7823767,53 L16.7823767,38.885 L16.9717502,38.8845558 C35.952394,38.7738386 37.9221903,33.2037056 37.9221903,26.3486092 C37.9221903,19.4732281 35.0522846,13.8904262 16.7839629,13.8118232 L16.7823767,0 L16.7823767,0 Z" id="Combined-Shape" fill="#98A1E3"></path>
            </g>
        </g>
        <g id="Group-2-Copy" transform="translate(191.188258, 17.000000)">
            <g id="Group">
                <rect id="Rectangle" fill="#8782B9" x="0.6" y="0" width="16.5" height="53"></rect>
                <path d="M16.7823767,0 C49.4871363,0 54.6,11.8644541 54.6,26.5 C54.6,41.1355459 48.0779303,53 16.7823767,53 L16.7823767,38.885 L16.9717502,38.8845558 C35.952394,38.7738386 37.9221903,33.2037056 37.9221903,26.3486092 C37.9221903,19.4732281 35.0522846,13.8904262 16.7839629,13.8118232 L16.7823767,0 L16.7823767,0 Z" id="Combined-Shape" fill="#B3B0D3"></path>
            </g>
        </g>
        <path d="M269.822554,17.001 L270.271102,17.0024473 C292.034444,17.1637592 295.460341,25.279294 295.460341,35.2669859 C295.460341,42.005618 293.471002,47.8920226 285.77388,51.0582254 L295.688258,70.3365238 L277.132554,70.3365238 L269.802993,53.533 L264.083993,53.533 L264.084952,70.3365238 L247.917993,70.3365238 L247.917993,17 L269.822554,17.001 Z M272.064551,31.0478801 L264.091301,31.0478801 L264.091301,39.4860918 L272.124711,39.4860918 L272.389053,39.4841576 C278.037412,39.4159791 279.227395,37.5539829 279.227395,35.2669859 C279.227395,32.9368381 278.258993,31.0478801 272.064551,31.0478801 Z" id="Combined-Shape" fill="#B3B0D3"></path>
        <rect id="Rectangle" fill="#B3B0D3" x="297.417993" y="17" width="16.1799175" height="53.3391979"></rect>
        <path d="M315.327645,70.3391979 L315.327645,17 L331.507563,17 L331.507563,56.2382209 L351.704826,56.2382209 L351.704826,70.3391979 L315.327645,70.3391979 Z" id="Combined-Shape" fill="#B3B0D3"></path>
        <path d="M353.434561,70.3391979 L353.434561,17 L369.614479,17 L369.614479,56.2382209 L389.811742,56.2382209 L389.811742,70.3391979 L353.434561,70.3391979 Z" id="Combined-Shape-Copy-2" fill="#B3B0D3"></path>
        <g id="Group-4" transform="translate(120.917993, 11.000000)" fill="#98A1E3">
            <polygon id="Rectangle-Copy-4" transform="translate(18.157649, 32.702266) rotate(-17.000000) translate(-18.157649, -32.702266) " points="9 1.99978586 26.5521061 7.36600322 27.3152979 63.4045312 12.2435266 58.7966283"></polygon>
            <polygon id="Rectangle-Copy-5" transform="translate(42.460401, 32.702266) scale(-1, 1) rotate(-17.000000) translate(-42.460401, -32.702266) " points="33.3027524 1.99978586 50.8548585 7.36600322 51.6180502 63.4045312 36.546279 58.7966283"></polygon>
        </g>
    </g>
</svg>